<svg xmlns="http://www.w3.org/2000/svg" xmlns:xlink="http://www.w3.org/1999/xlink" version="1.1" x="0px" y="0px" viewBox="0 0 100 125" enable-background="new 0 0 100 100" xml:space="preserve"><g><g><path fill="#000000" d="M50,95.833C24.728,95.833,4.167,75.273,4.167,50C4.167,24.727,24.728,4.167,50,4.167    S95.833,24.727,95.833,50C95.833,75.273,75.273,95.833,50,95.833z M50,7.667C26.657,7.667,7.667,26.657,7.667,50    S26.657,92.333,50,92.333S92.333,73.342,92.333,50S73.343,7.667,50,7.667z"/></g><g><path fill="#000000" d="M38.429,67.734c-0.317,0-0.633-0.086-0.912-0.257c-0.521-0.317-0.838-0.884-0.838-1.493V34.016    c0-0.61,0.317-1.176,0.838-1.494c0.52-0.317,1.167-0.342,1.711-0.063l31.148,15.983c0.584,0.3,0.951,0.901,0.951,1.557    s-0.367,1.257-0.951,1.557L39.228,67.54C38.977,67.669,38.702,67.734,38.429,67.734z M40.179,36.881v26.237L65.744,50    L40.179,36.881z"/></g></g><text x="0" y="115" fill="#000000" font-size="5px" font-weight="bold" font-family="'Helvetica Neue', Helvetica, Arial-Unicode, Arial, Sans-serif">Created by Zech Nelson</text><text x="0" y="120" fill="#000000" font-size="5px" font-weight="bold" font-family="'Helvetica Neue', Helvetica, Arial-Unicode, Arial, Sans-serif">from the Noun Project</text></svg>